<mxfile host="app.diagrams.net" modified="2022-09-03T22:32:05.317Z" agent="5.0 (Windows)" etag="ckYke5vIh4ZKaNMqR3NS" version="20.2.8" type="github">
  <diagram id="B21st1OlzCJdoa5PMOJx" name="Page-1">
    <mxGraphModel dx="1570" dy="953" grid="1" gridSize="10" guides="1" tooltips="1" connect="1" arrows="1" fold="1" page="1" pageScale="1" pageWidth="827" pageHeight="1169" math="0" shadow="0">
      <root>
        <mxCell id="0" />
        <mxCell id="1" parent="0" />
        <mxCell id="0qYdTxWqN430-TEzSU1R-1" value="" style="strokeColor=#666666;html=1;verticalLabelPosition=bottom;labelBackgroundColor=#ffffff;verticalAlign=top;outlineConnect=0;shadow=0;dashed=0;shape=mxgraph.rackGeneral.rackCabinet;fillColor2=#f4f4f4;container=1;collapsible=0;childLayout=rack;allowGaps=1;marginLeft=33;marginRight=9;marginTop=21;marginBottom=22;textColor=#666666;numDisp=descend;unitNum=35;autosize=1;metaEdit=0;" parent="1" vertex="1">
          <mxGeometry x="140" y="220" width="203" height="571" as="geometry" />
        </mxCell>
        <mxCell id="Z4-qC2GuYI4bvP1Sg_5x-25" value="" style="html=1;verticalLabelPosition=bottom;verticalAlign=top;outlineConnect=0;shadow=0;dashed=0;shape=mxgraph.rack.hpe_aruba.gateways_controllers.aruba_mobility_master_5k_front;" vertex="1" parent="0qYdTxWqN430-TEzSU1R-1">
          <mxGeometry x="33" y="80" width="161" height="15" as="geometry" />
        </mxCell>
        <mxCell id="Z4-qC2GuYI4bvP1Sg_5x-26" value="" style="html=1;verticalLabelPosition=bottom;verticalAlign=top;outlineConnect=0;shadow=0;dashed=0;shape=mxgraph.rack.hpe_aruba.gateways_controllers.aruba_7210_mobility_controller_front;" vertex="1" parent="0qYdTxWqN430-TEzSU1R-1">
          <mxGeometry x="33" y="110" width="161" height="15" as="geometry" />
        </mxCell>
        <mxCell id="Z4-qC2GuYI4bvP1Sg_5x-21" value="" style="strokeColor=#666666;html=1;labelPosition=right;align=left;spacingLeft=15;shadow=0;dashed=0;outlineConnect=0;shape=mxgraph.rack.dell.poweredge_r6525;" vertex="1" parent="0qYdTxWqN430-TEzSU1R-1">
          <mxGeometry x="33" y="230" width="161" height="15" as="geometry" />
        </mxCell>
        <mxCell id="0qYdTxWqN430-TEzSU1R-2" value="" style="strokeColor=#666666;html=1;labelPosition=right;align=left;spacingLeft=15;shadow=0;dashed=0;outlineConnect=0;shape=mxgraph.rack.dell.poweredge_630;" parent="0qYdTxWqN430-TEzSU1R-1" vertex="1">
          <mxGeometry x="33" y="260" width="161" height="15" as="geometry" />
        </mxCell>
        <mxCell id="Z4-qC2GuYI4bvP1Sg_5x-20" value="" style="strokeColor=#666666;html=1;labelPosition=right;align=left;spacingLeft=15;shadow=0;dashed=0;outlineConnect=0;shape=mxgraph.rack.dell.poweredge_630;" vertex="1" parent="0qYdTxWqN430-TEzSU1R-1">
          <mxGeometry x="33" y="275" width="161" height="15" as="geometry" />
        </mxCell>
        <mxCell id="Z4-qC2GuYI4bvP1Sg_5x-1" value="" style="strokeColor=#666666;html=1;labelPosition=right;align=left;spacingLeft=15;shadow=0;dashed=0;outlineConnect=0;shape=mxgraph.rack.dell.poweredge_630;" vertex="1" parent="0qYdTxWqN430-TEzSU1R-1">
          <mxGeometry x="33" y="290" width="161" height="15" as="geometry" />
        </mxCell>
        <mxCell id="Z4-qC2GuYI4bvP1Sg_5x-2" value="" style="strokeColor=#666666;html=1;labelPosition=right;align=left;spacingLeft=15;shadow=0;dashed=0;outlineConnect=0;shape=mxgraph.rack.dell.poweredge_630;" vertex="1" parent="0qYdTxWqN430-TEzSU1R-1">
          <mxGeometry x="33" y="305" width="161" height="15" as="geometry" />
        </mxCell>
        <mxCell id="Z4-qC2GuYI4bvP1Sg_5x-5" value="" style="strokeColor=#666666;html=1;labelPosition=right;align=left;spacingLeft=15;shadow=0;dashed=0;outlineConnect=0;shape=mxgraph.rack.dell.poweredge_630;" vertex="1" parent="0qYdTxWqN430-TEzSU1R-1">
          <mxGeometry x="33" y="320" width="161" height="15" as="geometry" />
        </mxCell>
        <mxCell id="Z4-qC2GuYI4bvP1Sg_5x-6" value="" style="strokeColor=#666666;html=1;labelPosition=right;align=left;spacingLeft=15;shadow=0;dashed=0;outlineConnect=0;shape=mxgraph.rack.dell.poweredge_630;" vertex="1" parent="0qYdTxWqN430-TEzSU1R-1">
          <mxGeometry x="33" y="335" width="161" height="15" as="geometry" />
        </mxCell>
        <mxCell id="Z4-qC2GuYI4bvP1Sg_5x-7" value="" style="strokeColor=#666666;html=1;labelPosition=right;align=left;spacingLeft=15;shadow=0;dashed=0;outlineConnect=0;shape=mxgraph.rack.dell.poweredge_630;" vertex="1" parent="0qYdTxWqN430-TEzSU1R-1">
          <mxGeometry x="33" y="350" width="161" height="15" as="geometry" />
        </mxCell>
        <mxCell id="Z4-qC2GuYI4bvP1Sg_5x-8" value="" style="strokeColor=#666666;html=1;labelPosition=right;align=left;spacingLeft=15;shadow=0;dashed=0;outlineConnect=0;shape=mxgraph.rack.dell.poweredge_630;" vertex="1" parent="0qYdTxWqN430-TEzSU1R-1">
          <mxGeometry x="33" y="365" width="161" height="15" as="geometry" />
        </mxCell>
        <mxCell id="Z4-qC2GuYI4bvP1Sg_5x-9" value="" style="strokeColor=#666666;html=1;labelPosition=right;align=left;spacingLeft=15;shadow=0;dashed=0;outlineConnect=0;shape=mxgraph.rack.dell.poweredge_630;" vertex="1" parent="0qYdTxWqN430-TEzSU1R-1">
          <mxGeometry x="33" y="380" width="161" height="15" as="geometry" />
        </mxCell>
        <mxCell id="Z4-qC2GuYI4bvP1Sg_5x-10" value="" style="strokeColor=#666666;html=1;labelPosition=right;align=left;spacingLeft=15;shadow=0;dashed=0;outlineConnect=0;shape=mxgraph.rack.dell.poweredge_630;" vertex="1" parent="0qYdTxWqN430-TEzSU1R-1">
          <mxGeometry x="33" y="395" width="161" height="15" as="geometry" />
        </mxCell>
        <mxCell id="Z4-qC2GuYI4bvP1Sg_5x-11" value="" style="strokeColor=#666666;html=1;labelPosition=right;align=left;spacingLeft=15;shadow=0;dashed=0;outlineConnect=0;shape=mxgraph.rack.dell.poweredge_630;" vertex="1" parent="0qYdTxWqN430-TEzSU1R-1">
          <mxGeometry x="33" y="410" width="161" height="15" as="geometry" />
        </mxCell>
        <mxCell id="Z4-qC2GuYI4bvP1Sg_5x-12" value="" style="strokeColor=#666666;html=1;labelPosition=right;align=left;spacingLeft=15;shadow=0;dashed=0;outlineConnect=0;shape=mxgraph.rack.dell.poweredge_630;" vertex="1" parent="0qYdTxWqN430-TEzSU1R-1">
          <mxGeometry x="33" y="425" width="161" height="15" as="geometry" />
        </mxCell>
        <mxCell id="Z4-qC2GuYI4bvP1Sg_5x-13" value="" style="strokeColor=#666666;html=1;labelPosition=right;align=left;spacingLeft=15;shadow=0;dashed=0;outlineConnect=0;shape=mxgraph.rack.dell.poweredge_630;" vertex="1" parent="0qYdTxWqN430-TEzSU1R-1">
          <mxGeometry x="33" y="440" width="161" height="15" as="geometry" />
        </mxCell>
        <mxCell id="Z4-qC2GuYI4bvP1Sg_5x-14" value="" style="strokeColor=#666666;html=1;labelPosition=right;align=left;spacingLeft=15;shadow=0;dashed=0;outlineConnect=0;shape=mxgraph.rack.dell.poweredge_630;" vertex="1" parent="0qYdTxWqN430-TEzSU1R-1">
          <mxGeometry x="33" y="455" width="161" height="15" as="geometry" />
        </mxCell>
        <mxCell id="Z4-qC2GuYI4bvP1Sg_5x-15" value="" style="strokeColor=#666666;html=1;labelPosition=right;align=left;spacingLeft=15;shadow=0;dashed=0;outlineConnect=0;shape=mxgraph.rack.dell.poweredge_630;" vertex="1" parent="0qYdTxWqN430-TEzSU1R-1">
          <mxGeometry x="33" y="470" width="161" height="15" as="geometry" />
        </mxCell>
        <mxCell id="Z4-qC2GuYI4bvP1Sg_5x-16" value="" style="strokeColor=#666666;html=1;labelPosition=right;align=left;spacingLeft=15;shadow=0;dashed=0;outlineConnect=0;shape=mxgraph.rack.dell.poweredge_630;" vertex="1" parent="0qYdTxWqN430-TEzSU1R-1">
          <mxGeometry x="33" y="485" width="161" height="15" as="geometry" />
        </mxCell>
        <mxCell id="Z4-qC2GuYI4bvP1Sg_5x-17" value="" style="strokeColor=#666666;html=1;labelPosition=right;align=left;spacingLeft=15;shadow=0;dashed=0;outlineConnect=0;shape=mxgraph.rack.dell.poweredge_630;" vertex="1" parent="0qYdTxWqN430-TEzSU1R-1">
          <mxGeometry x="33" y="500" width="161" height="15" as="geometry" />
        </mxCell>
        <mxCell id="Z4-qC2GuYI4bvP1Sg_5x-18" value="" style="strokeColor=#666666;html=1;labelPosition=right;align=left;spacingLeft=15;shadow=0;dashed=0;outlineConnect=0;shape=mxgraph.rack.dell.poweredge_630;" vertex="1" parent="0qYdTxWqN430-TEzSU1R-1">
          <mxGeometry x="33" y="515" width="161" height="14" as="geometry" />
        </mxCell>
        <mxCell id="Z4-qC2GuYI4bvP1Sg_5x-19" value="" style="strokeColor=#666666;html=1;labelPosition=right;align=left;spacingLeft=15;shadow=0;dashed=0;outlineConnect=0;shape=mxgraph.rack.dell.poweredge_630;" vertex="1" parent="0qYdTxWqN430-TEzSU1R-1">
          <mxGeometry x="33" y="529" width="161" height="14" as="geometry" />
        </mxCell>
        <mxCell id="Z4-qC2GuYI4bvP1Sg_5x-22" value="" style="strokeColor=#666666;html=1;verticalLabelPosition=bottom;labelBackgroundColor=#ffffff;verticalAlign=top;outlineConnect=0;shadow=0;dashed=0;shape=mxgraph.rackGeneral.rackCabinet;fillColor2=#f4f4f4;container=1;collapsible=0;childLayout=rack;allowGaps=1;marginLeft=9;marginRight=9;marginTop=21;marginBottom=22;textColor=#666666;numDisp=off;" vertex="1" parent="1">
          <mxGeometry x="163" y="1" width="180" height="219" as="geometry" />
        </mxCell>
      </root>
    </mxGraphModel>
  </diagram>
</mxfile>
